# xmcd
#
# Track frame offsets:
# 150
# 22072
# 36248
# 51736
# 62050
# 94666
# 111419
# 124091
# 140679
# 152964
# 164873
# 183761
# 209756
# 224230
# 241431
# 257358
# 273893
# 285446
# 305133
# 317382
#
# Disc length: 4489 seconds
#
#
# Revision: 0
# Processed by: cddbd v1.5.2PL0 Copyright (c) Steve Scherf et al.
# Submitted via: FreeRIP 2.944 
#
DISCID=41118714
DTITLE=Saffire - The Uppity Blues Women - Deluxe Edition
DYEAR=2006
DGENRE=Blues
TTITLE0=Middle Aged Blues Boogie
TTITLE1=Sloppy Drunk
TTITLE2=It Takes A Mighty Good Man
TTITLE3=Ain't Gonna Hush
TTITLE4=Bitch With A Bad Attitude
TTITLE5=There's Lightning in Those Thunder Thighs
TTITLE6=Tom Cat Blues
TTITLE7=(No Need) Pissin' on a Skunk
TTITLE8=Don't Treat Your Man Like A Dog
TTITLE9=Because Of You
TTITLE10=T'aint Nobody's Business
TTITLE11=Silver Beaver
TTITLE12=Elevator Man
TTITLE13=How Can I Say I Miss You?
TTITLE14=My Girlish Days
TTITLE15=School Teacher's Blues
TTITLE16=You Is or Is You Ain't My Baby?
TTITLE17=Falling Back In Love With You
TTITLE18=Wild Women Don't Have the Blues
TTITLE19=The Equalizer
EXTD=
EXTT0=
EXTT1=
EXTT2=
EXTT3=
EXTT4=
EXTT5=
EXTT6=
EXTT7=
EXTT8=
EXTT9=
EXTT10=
EXTT11=
EXTT12=
EXTT13=
EXTT14=
EXTT15=
EXTT16=
EXTT17=
EXTT18=
EXTT19=
PLAYORDER=
